<?xml version="1.0" encoding="utf-8"?>
<!-- Generator: Adobe Illustrator 22.0.0, SVG Export Plug-In . SVG Version: 6.00 Build 0)  -->
<svg version="1.1" id="Ebene_1" xmlns="http://www.w3.org/2000/svg" xmlns:xlink="http://www.w3.org/1999/xlink" x="0px" y="0px"
	 viewBox="0 0 34 48" style="enable-background:new 0 0 34 48;" xml:space="preserve">
<style type="text/css">
	.st0{fill:#999999;}
	.st1{fill:#098CFC;}
	.st2{filter:url(#Adobe_OpacityMaskFilter);}
	.st3{fill:#FFFFFF;}
	.st4{mask:url(#b_1_);fill:#E57D21;}
	.st5{fill:#F39B13;}
</style>
<title>Group 20</title>
<desc>Created with Sketch.</desc>
<g>
	<path class="st0" d="M18,19.9c-1.1-1.4,1.5-5.3,5.7-8.8s8.6-5.2,9.7-3.9c1.1,1.4-1.5,5.3-5.7,8.8C23.5,19.5,19.2,21.3,18,19.9"/>
	<path class="st0" d="M24.6,22.2c0-5.2-4.2-9.4-9.4-9.4S5.8,17,5.8,22.2v18.3c0,0.2,0,0.4,0,0.5c0,0.1,0,0.2,0,0.3
		c0,3.4,4.2,6.2,9.4,6.2s9.4-2.8,9.4-6.2c0-0.1,0-0.2,0-0.3c0-0.2,0-0.4,0-0.5V22.2z"/>
	<path class="st1" d="M13.4,12.5c-1.7,0.3-4.4,1-6.2,3.9c-1.8,2.9-1.6,6.5-0.5,7.2c1,0.6,0.6-2.4,1.5-2.7C9,20.6,9,22,9.9,21.7
		c0.9-0.3,1.4-2,2.5-2c1,0,1.1,2.5,0.5,4.3c-0.5,1.9,1.2,3.2,1.6,1.5c0.4-1.7-0.7-4.4,0.6-5.4c1.3-1,1.8,1.3,1.8,2.5
		c-0.1,1.2,1.4,1.6,1.4,0.5c-0.1-1.1,0.5-2.1,1.4-1.7c0.9,0.5,1.6,1.4,2.3,1c0.7-0.3,1.3-0.2,1.3,1c0,1.2-0.2,2.8,0.3,2.6
		c0.5-0.2,0.1-1.6,0.6-1.5c0.2,0,0.2,0.5,0.2,0.5s0.9-3.3,0.2-6.4C23.5,13.5,16.6,11.9,13.4,12.5"/>
	<g transform="translate(215)">
		<defs>
			<filter id="Adobe_OpacityMaskFilter" filterUnits="userSpaceOnUse" x="-214.7" y="0.5" width="12.7" height="15.3">
				<feColorMatrix  type="matrix" values="1 0 0 0 0  0 1 0 0 0  0 0 1 0 0  0 0 0 1 0"/>
			</filter>
		</defs>
		<mask maskUnits="userSpaceOnUse" x="-214.7" y="0.5" width="12.7" height="15.3" id="b_1_">
			<g class="st2">
				<path id="a_1_" class="st3" d="M-214.7,0.5h12.7v15.3h-12.7V0.5z"/>
			</g>
		</mask>
		<path class="st4" d="M-214.7,0.5l4.4,15.3l8.3-5.7L-214.7,0.5z"/>
	</g>
	<path class="st5" d="M13.9,9.6L3.5,16.7l1.8,4.8L17.8,13L13.9,9.6z"/>
</g>
</svg>
